<svg xmlns="http://www.w3.org/2000/svg" xmlns:xlink="http://www.w3.org/1999/xlink" viewBox="0 0 127.5481 29.2336">
  <defs>
    <style>
      .a {
        fill: #002d72;
      }
    </style>
    <symbol id="a" data-name="logo_inseec_long_bleu" viewBox="0 0 127.548 29.234">
      <g>
        <polygon class="a" points="25.037 29.234 0 29.234 0 3.879 7.719 3.879 7.719 27.965 17.375 22.317 17.375 3.879 25.037 3.879 25.037 29.234"/>
        <polygon class="a" points="15.927 21.426 9.207 25.302 9.207 3.905 15.927 0 15.927 21.426"/>
      </g>
      <rect class="a" x="30.8492" y="9.6994" width="2.52" height="13.0538"/>
      <polygon class="a" points="46.209 18.518 46.209 9.699 48.608 9.699 48.608 22.753 46.603 22.753 38.066 12.442 38.066 22.753 35.701 22.753 35.701 9.699 38.872 9.699 46.209 18.518"/>
      <polygon class="a" points="74.824 11.939 65.807 11.939 66.607 12.859 66.607 14.994 73.704 14.994 73.704 17.216 66.607 17.216 66.607 20.514 75.213 20.514 75.213 22.753 64.31 22.753 64.31 9.699 74.824 9.699 74.824 11.939"/>
      <polygon class="a" points="88.023 11.939 79.007 11.939 79.807 12.859 79.807 14.994 86.903 14.994 86.903 17.216 79.807 17.216 79.807 20.514 88.412 20.514 88.412 22.753 77.509 22.753 77.509 9.699 88.023 9.699 88.023 11.939"/>
      <rect class="a" x="125.4226" y="20.6181" width="2.1255" height="2.135"/>
      <path class="a" d="M60.3849,13.1364a4.8986,4.8986,0,0,0-.9257-.651,6.0744,6.0744,0,0,0-1.0027-.4338,5.874,5.874,0,0,0-.9945-.2344,6.4592,6.4592,0,0,0-.9-.0695,8.4932,8.4932,0,0,0-.9685.0606,4.3366,4.3366,0,0,0-.977.2258,2.0261,2.0261,0,0,0-.7628.4773,1.1112,1.1112,0,0,0-.3085.8159,1.2611,1.2611,0,0,0,.1885.6249,1.1891,1.1891,0,0,0,.7714.4862q.4455.1217,1.0456.2255t1.2341.2083q.6345.1044,1.2259.2t1.0371.1994a5.4136,5.4136,0,0,1,1.5169.5644,3.3707,3.3707,0,0,1,.9685.8158,2.7739,2.7739,0,0,1,.5056,1.0156,4.63,4.63,0,0,1,.1461,1.18,3.9666,3.9666,0,0,1-.4032,1.84,3.6412,3.6412,0,0,1-1.1056,1.2932,4.9169,4.9169,0,0,1-1.6455.7637,7.7487,7.7487,0,0,1-2.0058.2519,11.1,11.1,0,0,1-2.5026-.2519,8.6213,8.6213,0,0,1-1.8683-.6421,5.629,5.629,0,0,1-1.2945-.8508,4.7645,4.7645,0,0,1-.78-.8765L52.5,19.021a3.282,3.282,0,0,0,.84.7987,5.9164,5.9164,0,0,0,1.1227.59,6.7025,6.7025,0,0,0,1.2513.3646,6.5153,6.5153,0,0,0,1.2085.1217,5.2274,5.2274,0,0,0,1.1659-.1217,2.8045,2.8045,0,0,0,.917-.3731,1.9141,1.9141,0,0,0,.6085-.625,1.68,1.68,0,0,0,.2228-.8765,1.3,1.3,0,0,0-.2571-.8508,1.6683,1.6683,0,0,0-.7113-.4859,4.65,4.65,0,0,0-1.0628-.2518q-.6086-.0782-1.32-.1562t-1.4742-.2a10.1,10.1,0,0,1-1.5169-.3642,3.6453,3.6453,0,0,1-1.7484-1.2065,2.9857,2.9857,0,0,1-.566-1.814,3.483,3.483,0,0,1,.4543-1.84,3.6,3.6,0,0,1,1.2-1.2065,5.2747,5.2747,0,0,1,1.697-.66,9.3838,9.3838,0,0,1,1.9283-.1994,8.7526,8.7526,0,0,1,1.8087.1823,9.6473,9.6473,0,0,1,1.6027.4773,7.2043,7.2043,0,0,1,1.3113.6771,6.0314,6.0314,0,0,1,.9513.7637Z"/>
      <path class="a" d="M103.4108,19.5591a5.118,5.118,0,0,1-1.0456,1.519,6.0382,6.0382,0,0,1-1.483,1.0848,7.3,7.3,0,0,1-1.8083.651,9.3019,9.3019,0,0,1-2.0227.2173,8.1653,8.1653,0,0,1-2.9571-.5123,6.771,6.771,0,0,1-2.28-1.4233,6.2863,6.2863,0,0,1-1.4655-2.144,6.8713,6.8713,0,0,1-.5146-2.6733A6.677,6.677,0,0,1,90.417,13.44a6.2963,6.2963,0,0,1,1.5773-2.1265A6.9834,6.9834,0,0,1,94.3,9.9856a8.2635,8.2635,0,0,1,2.7514-.46,7.2129,7.2129,0,0,1,3.84,1.0067,7.0321,7.0321,0,0,1,2.5715,2.7428l-2.0573.9372a6.9529,6.9529,0,0,0-.7885-1.0067,4.4743,4.4743,0,0,0-.9513-.7638A4.3868,4.3868,0,0,0,98.5,11.9647,5.85,5.85,0,0,0,97.0512,11.8a5.7332,5.7332,0,0,0-1.8772.3036,4.5436,4.5436,0,0,0-1.5427.8854,4.2271,4.2271,0,0,0-1.0456,1.4148A4.4551,4.4551,0,0,0,92.2,16.2958a4.3092,4.3092,0,0,0,.3857,1.8485,4.2469,4.2469,0,0,0,1.0456,1.4063,4.7708,4.7708,0,0,0,1.5427.9025,5.4445,5.4445,0,0,0,1.8772.3214,7.0336,7.0336,0,0,0,1.3627-.13,5.1724,5.1724,0,0,0,1.2256-.3995,3.9861,3.9861,0,0,0,1.02-.6942,3.7794,3.7794,0,0,0,.7631-1.0156Z"/>
      <path class="a" d="M114.3128,17.0769a3.7587,3.7587,0,0,0,.36,1.7272,3.2132,3.2132,0,0,0,.9427,1.1369,3.7627,3.7627,0,0,0,1.32.625,5.911,5.911,0,0,0,1.4916.1909,5.8456,5.8456,0,0,0,1.4741-.1909,3.7656,3.7656,0,0,0,1.32-.625,3.2216,3.2216,0,0,0,.9431-1.1369,3.7587,3.7587,0,0,0,.36-1.7272V9.6993h2.3314v7.7421a5.047,5.047,0,0,1-1.9369,4.1053,6.4924,6.4924,0,0,1-2.0486,1.0762,7.9057,7.9057,0,0,1-2.4426.3732,8.1254,8.1254,0,0,1-2.4772-.3732,6.3472,6.3472,0,0,1-2.0569-1.0762,5.0728,5.0728,0,0,1-1.9284-4.1053V9.6993h2.3483Z"/>
    </symbol>
  </defs>
  <title>logo_inseec_long_bleu</title>
  <use width="127.5481" height="29.2336" xlink:href="#a"/>
</svg>
